<svg version="1.1" xmlns="http://www.w3.org/2000/svg" viewBox="0 0 1587.4790111940295 2158.723128580125" width="3174.958022388059" height="4317.44625716025" filter="invert(93%) hue-rotate(180deg)">
  <!-- svg-source:excalidraw -->
  
  <defs>
    <style class="style-fonts">
      @font-face {
        font-family: "Virgil";
        src: url("https://excalidraw.com/Virgil.woff2");
      }
      @font-face {
        font-family: "Cascadia";
        src: url("https://excalidraw.com/Cascadia.woff2");
      }
      @font-face {
        font-family: "Assistant";
        src: url("https://excalidraw.com/Assistant-Regular.woff2");
      }
    </style>
    
  </defs>
  <rect x="0" y="0" width="1587.4790111940295" height="2158.723128580125" fill="#ffffff"></rect><g stroke-linecap="round" transform="translate(27.91037331480885 370.5102944776643) rotate(0 61.67653359578543 56.896484375)"><path d="M28.45 0 C48.85 1.29, 71.62 1.47, 94.9 0 M28.45 0 C50.98 -0.32, 72.79 0.7, 94.9 0 M94.9 0 C115.29 1.39, 124.37 9.72, 123.35 28.45 M94.9 0 C114.92 0.74, 122.96 10.55, 123.35 28.45 M123.35 28.45 C123.92 46.2, 124.4 58.77, 123.35 85.34 M123.35 28.45 C123.48 44.74, 124.25 61.44, 123.35 85.34 M123.35 85.34 C122.01 104.75, 113.63 112.02, 94.9 113.79 M123.35 85.34 C122.21 102.11, 115.44 113.9, 94.9 113.79 M94.9 113.79 C82.94 113.22, 66.45 115.41, 28.45 113.79 M94.9 113.79 C79.86 114.62, 64.94 113.88, 28.45 113.79 M28.45 113.79 C9.02 115.62, 0.64 102.72, 0 85.34 M28.45 113.79 C10.31 112.26, 0.04 106.14, 0 85.34 M0 85.34 C-1.27 67, -2.33 51.42, 0 28.45 M0 85.34 C0.12 67.67, -1 48.93, 0 28.45 M0 28.45 C-0.47 11.1, 9.44 -1.28, 28.45 0 M0 28.45 C0.92 7.85, 7.72 0.21, 28.45 0" stroke="#1e1e1e" stroke-width="2" fill="none"></path></g><g transform="translate(58.91277854559712 413.25100661332476) rotate(0 36.2099609375 12.5)"><text x="0" y="17.52" font-family="Virgil, Segoe UI Emoji" font-size="20px" fill="#1e1e1e" text-anchor="start" style="white-space: pre;" direction="ltr" dominant-baseline="alphabetic">browser</text></g><g stroke-linecap="round" transform="translate(363.3724569439687 141.2756365205309) rotate(0 67.685546875 101.54128844235677)"><path d="M32 0 C47.82 -1.39, 64.87 1.92, 103.37 0 M32 0 C50.42 0.34, 67.87 -0.04, 103.37 0 M103.37 0 C126.49 -1.33, 134.93 11.83, 135.37 32 M103.37 0 C125.75 -0.49, 136.32 12.18, 135.37 32 M135.37 32 C138.1 63.64, 135.55 90.86, 135.37 171.08 M135.37 32 C135.46 66.27, 133.89 98.11, 135.37 171.08 M135.37 171.08 C135.06 193.26, 126.01 201.61, 103.37 203.08 M135.37 171.08 C136.35 194.41, 125.09 203.07, 103.37 203.08 M103.37 203.08 C75.11 201.86, 48.66 205.2, 32 203.08 M103.37 203.08 C82.49 203.03, 62.11 202.74, 32 203.08 M32 203.08 C10.02 201.31, -1.07 190.87, 0 171.08 M32 203.08 C8.53 201.76, -0.87 194.5, 0 171.08 M0 171.08 C-0.1 130.07, -0.82 86.73, 0 32 M0 171.08 C0.16 117.04, -0.48 64.35, 0 32 M0 32 C1.93 9.32, 9.72 -0.54, 32 0 M0 32 C-1.62 8.8, 11.02 1.61, 32 0" stroke="#1e1e1e" stroke-width="2" fill="none"></path></g><g transform="translate(387.9763502345731 219.07364553008762) rotate(0 32.310089111328125 10.199508511876957)"><text x="0" y="14.295631130246733" font-family="Virgil, Segoe UI Emoji" font-size="16.31921361900312px" fill="#1e1e1e" text-anchor="start" style="white-space: pre;" direction="ltr" dominant-baseline="alphabetic">NEXTJS</text></g><g transform="translate(376.9334296540222 252.17029816508096) rotate(0 56.610076904296875 9.98046875)"><text x="0" y="13.988624999999999" font-family="Virgil, Segoe UI Emoji" font-size="15.96875px" fill="#1e1e1e" text-anchor="start" style="white-space: pre;" direction="ltr" dominant-baseline="alphabetic">Primary Server</text></g><g stroke-linecap="round"><g transform="translate(152.2634405063797 397.3634686505204) rotate(0 101.5934075722901 -58.219880250117896)"><path d="M-0.95 -1.05 C32.88 -20.35, 169.77 -96.53, 204.13 -115.68 M0.76 1.02 C34.32 -18.64, 169.11 -97.6, 203.16 -117.46" stroke="#1e1e1e" stroke-width="2" fill="none"></path></g><g transform="translate(152.2634405063797 397.3634686505204) rotate(0 101.5934075722901 -58.219880250117896)"><path d="M187.19 -98.22 C191.77 -105.83, 200.97 -111.65, 203.16 -117.46 M187.19 -98.22 C193.26 -104.67, 197.11 -110.81, 203.16 -117.46" stroke="#1e1e1e" stroke-width="2" fill="none"></path></g><g transform="translate(152.2634405063797 397.3634686505204) rotate(0 101.5934075722901 -58.219880250117896)"><path d="M178.56 -112.98 C186.59 -114.66, 199.22 -114.61, 203.16 -117.46 M178.56 -112.98 C187.56 -114.6, 194.27 -115.85, 203.16 -117.46" stroke="#1e1e1e" stroke-width="2" fill="none"></path></g></g><mask></mask><g transform="translate(176.89941744271812 258.2163941039202) rotate(331.0829879707817 71.29926913928398 39.5510251449726)"><text x="0" y="11.086943368638718" font-family="Virgil, Segoe UI Emoji" font-size="12.65632804639123px" fill="#1e1e1e" text-anchor="start" style="white-space: pre;" direction="ltr" dominant-baseline="alphabetic"></text><text x="0" y="26.907353426627758" font-family="Virgil, Segoe UI Emoji" font-size="12.65632804639123px" fill="#1e1e1e" text-anchor="start" style="white-space: pre;" direction="ltr" dominant-baseline="alphabetic">OFF RAMP/ONRAMP</text><text x="0" y="42.727763484616794" font-family="Virgil, Segoe UI Emoji" font-size="12.65632804639123px" fill="#1e1e1e" text-anchor="start" style="white-space: pre;" direction="ltr" dominant-baseline="alphabetic"></text><text x="0" y="58.54817354260584" font-family="Virgil, Segoe UI Emoji" font-size="12.65632804639123px" fill="#1e1e1e" text-anchor="start" style="white-space: pre;" direction="ltr" dominant-baseline="alphabetic">P2p Transfer</text><text x="0" y="74.36858360059487" font-family="Virgil, Segoe UI Emoji" font-size="12.65632804639123px" fill="#1e1e1e" text-anchor="start" style="white-space: pre;" direction="ltr" dominant-baseline="alphabetic"></text></g><g stroke-linecap="round" transform="translate(947.3401371105615 370.3569730249785) rotate(0 76.625 67.84375)"><path d="M32 0 C65.31 1.57, 96.98 1.36, 121.25 0 M32 0 C61.56 -0.25, 90.62 -1.05, 121.25 0 M121.25 0 C141.82 -0.25, 152.75 11.75, 153.25 32 M121.25 0 C142.71 2.02, 151.09 12.08, 153.25 32 M153.25 32 C152.66 55.92, 153.09 77.03, 153.25 103.69 M153.25 32 C153.03 54.07, 152.91 77.07, 153.25 103.69 M153.25 103.69 C154.91 125.79, 143.36 136.86, 121.25 135.69 M153.25 103.69 C155.12 123.72, 142.01 135.9, 121.25 135.69 M121.25 135.69 C98.83 133.86, 75.82 136.22, 32 135.69 M121.25 135.69 C90.01 134.34, 58.69 135.37, 32 135.69 M32 135.69 C12.2 134.44, 1.65 123.72, 0 103.69 M32 135.69 C10.61 134.74, -0.84 125.19, 0 103.69 M0 103.69 C-1.26 81.37, 1.65 62.74, 0 32 M0 103.69 C-0.16 78.11, -1.25 51.16, 0 32 M0 32 C-1.63 10.25, 10.98 0.97, 32 0 M0 32 C2 12.6, 8.66 -2.25, 32 0" stroke="#1e1e1e" stroke-width="2" fill="none"></path></g><g transform="translate(962.9243081554089 423.9458486896391) rotate(0 68.73595428466797 10)"><text x="0" y="14.016" font-family="Virgil, Segoe UI Emoji" font-size="16px" fill="#1e1e1e" text-anchor="start" style="white-space: pre;" direction="ltr" dominant-baseline="alphabetic">Netbanking server</text></g><g stroke-linecap="round"><g transform="translate(502.1983182079707 216.90622562405167) rotate(0 221.216247420261 86.32644760649555)"><path d="M0.75 0.64 C74.06 29.27, 367.06 143.04, 440.61 171.47 M-0.32 -0.07 C73.28 28.74, 369.11 144.02, 442.75 172.72" stroke="#1e1e1e" stroke-width="2" fill="none"></path></g><g transform="translate(502.1983182079707 216.90622562405167) rotate(0 221.216247420261 86.32644760649555)"><path d="M417.76 172.16 C427.88 170.39, 434.95 173.03, 442.75 172.72 M417.76 172.16 C423.13 172.83, 429.85 173.43, 442.75 172.72" stroke="#1e1e1e" stroke-width="2" fill="none"></path></g><g transform="translate(502.1983182079707 216.90622562405167) rotate(0 221.216247420261 86.32644760649555)"><path d="M423.97 156.22 C431.8 160.27, 436.63 168.68, 442.75 172.72 M423.97 156.22 C427.79 160.56, 433.06 164.88, 442.75 172.72" stroke="#1e1e1e" stroke-width="2" fill="none"></path></g></g><mask></mask><g stroke-linecap="round" transform="translate(554.6920754205967 535.2925549087793) rotate(0 67.68554687500003 30.27876420454544)"><path d="M15.14 0 C38.9 -0.08, 67.37 -1.45, 120.23 0 M15.14 0 C40.64 -0.02, 66.94 1.72, 120.23 0 M120.23 0 C131.11 0.94, 134.39 3.16, 135.37 15.14 M120.23 0 C130.58 2.1, 133.26 5.14, 135.37 15.14 M135.37 15.14 C137.09 25.62, 135.84 38.21, 135.37 45.42 M135.37 15.14 C136.09 21.09, 134.46 27.18, 135.37 45.42 M135.37 45.42 C136.08 55.02, 131.26 62.1, 120.23 60.56 M135.37 45.42 C135.1 55.04, 132.28 60.59, 120.23 60.56 M120.23 60.56 C97.83 60.36, 76.48 61.1, 15.14 60.56 M120.23 60.56 C82.67 61, 42.95 60.91, 15.14 60.56 M15.14 60.56 C3.16 62.22, -1.43 55.72, 0 45.42 M15.14 60.56 C7.13 60.58, 0.44 56.21, 0 45.42 M0 45.42 C2.13 32.29, -0.22 22.13, 0 15.14 M0 45.42 C0.64 33.42, 0.09 22.68, 0 15.14 M0 15.14 C-0.13 6.71, 7 1.29, 15.14 0 M0 15.14 C1.57 6.77, 4.93 1.89, 15.14 0" stroke="#1e1e1e" stroke-width="2" fill="none"></path></g><g transform="translate(567.2256676447178 555.5713191133246) rotate(0 55.151954650878906 10)"><text x="55.151954650878906" y="14.016" font-family="Virgil, Segoe UI Emoji" font-size="16px" fill="#1e1e1e" text-anchor="middle" style="white-space: pre;" direction="ltr" dominant-baseline="alphabetic">Postgress DB</text></g><g stroke-linecap="round"><g transform="translate(488.84255694985956 340.6905455127895) rotate(0 60.490355188997825 94.00215648963616)"><path d="M0.21 0.38 C20.39 31.98, 101.81 157.36, 122.12 188.46 M-1.14 -0.46 C18.89 30.87, 101.2 155.16, 121.7 186.53" stroke="#1e1e1e" stroke-width="2" fill="none"></path></g><g transform="translate(488.84255694985956 340.6905455127895) rotate(0 60.490355188997825 94.00215648963616)"><path d="M101.64 171.61 C109.84 178.96, 117.5 184.61, 121.7 186.53 M101.64 171.61 C105.36 175.58, 110.05 178.53, 121.7 186.53" stroke="#1e1e1e" stroke-width="2" fill="none"></path></g><g transform="translate(488.84255694985956 340.6905455127895) rotate(0 60.490355188997825 94.00215648963616)"><path d="M115.93 162.21 C118.55 173.19, 120.73 182.45, 121.7 186.53 M115.93 162.21 C116.69 168.17, 118.42 173.08, 121.7 186.53" stroke="#1e1e1e" stroke-width="2" fill="none"></path></g></g><mask></mask><g transform="translate(424.11256320307564 362.9742217178717) rotate(0 56.763671875 20)"><text x="0" y="14.016" font-family="Virgil, Segoe UI Emoji" font-size="16px" fill="#1e1e1e" text-anchor="start" style="white-space: pre;" direction="ltr" dominant-baseline="alphabetic">Adds</text><text x="0" y="34.016" font-family="Virgil, Segoe UI Emoji" font-size="16px" fill="#1e1e1e" text-anchor="start" style="white-space: pre;" direction="ltr" dominant-baseline="alphabetic">transaction</text></g><g stroke-linecap="round" transform="translate(299.72338228021465 853.6783745711493) rotate(0 78.49641436233321 60.60255744793599)"><path d="M30.3 0 C68.07 -0.32, 103.67 0.65, 126.69 0 M30.3 0 C66.66 0.58, 102.96 -0.87, 126.69 0 M126.69 0 C148.87 -0.89, 157.61 12.09, 156.99 30.3 M126.69 0 C145.8 1.77, 158.01 10.65, 156.99 30.3 M156.99 30.3 C158.03 49.23, 155.51 66.76, 156.99 90.9 M156.99 30.3 C156.31 53.01, 157.57 73.33, 156.99 90.9 M156.99 90.9 C157.74 112.56, 148.35 120.06, 126.69 121.21 M156.99 90.9 C158.48 113.06, 146.19 123.14, 126.69 121.21 M126.69 121.21 C93.83 121.67, 66.21 123.06, 30.3 121.21 M126.69 121.21 C105.97 120.94, 83.1 121.64, 30.3 121.21 M30.3 121.21 C12.08 121.55, -1.41 110.26, 0 90.9 M30.3 121.21 C11.81 123.32, -1.91 111.19, 0 90.9 M0 90.9 C1.81 68.69, 0.69 46.46, 0 30.3 M0 90.9 C0.08 72.21, 0.68 52.85, 0 30.3 M0 30.3 C-1.92 11.73, 11.77 -0.06, 30.3 0 M0 30.3 C1.8 9.21, 8.93 -2.16, 30.3 0" stroke="#1e1e1e" stroke-width="2" fill="none"></path></g><g transform="translate(333.6061446680285 870.5280438625294) rotate(0 59.35235010947741 9.93059162203076)"><text x="0" y="13.918717217438317" font-family="Virgil, Segoe UI Emoji" font-size="15.88894659524922px" fill="#1e1e1e" text-anchor="start" style="white-space: pre;" direction="ltr" dominant-baseline="alphabetic">Webhook Server</text></g><g stroke-linecap="round"><g transform="translate(445.1136980788468 858.9543009401266) rotate(0 83.75531750986573 -131.22543678759342)"><path d="M0.52 -0.4 C28.44 -44.08, 140.3 -218.36, 168.18 -262.05 M-0.67 -1.65 C27.14 -45.13, 139.78 -217.19, 167.79 -260.49" stroke="#1e1e1e" stroke-width="2" fill="none"></path></g><g transform="translate(445.1136980788468 858.9543009401266) rotate(0 83.75531750986573 -131.22543678759342)"><path d="M162.14 -236.14 C163.46 -242.98, 166.21 -252.2, 167.79 -260.49 M162.14 -236.14 C163.13 -243.39, 165.56 -249.61, 167.79 -260.49" stroke="#1e1e1e" stroke-width="2" fill="none"></path></g><g transform="translate(445.1136980788468 858.9543009401266) rotate(0 83.75531750986573 -131.22543678759342)"><path d="M147.81 -245.47 C154.2 -249.08, 162.01 -255, 167.79 -260.49 M147.81 -245.47 C152.53 -250.31, 158.75 -254.07, 167.79 -260.49" stroke="#1e1e1e" stroke-width="2" fill="none"></path></g></g><mask></mask><g stroke-linecap="round"><g transform="translate(464.7432640682235 929.4861296058411) rotate(180.76021425588812 295.63282330675827 -210.55836367684913)"><path d="M0.7 -0.89 C38.93 -54.48, 130.29 -251.73, 228.79 -321.67 C327.28 -391.62, 531.55 -403.83, 591.66 -420.54 M-0.39 1.26 C38.27 -52.18, 132.45 -249.88, 231.09 -320.48 C329.73 -391.09, 531.78 -405.61, 591.46 -422.38" stroke="#1e1e1e" stroke-width="2" fill="none"></path></g><g transform="translate(464.7432640682235 929.4861296058411) rotate(180.76021425588812 295.63282330675827 -210.55836367684913)"><path d="M569.95 -409.64 C573.88 -414.25, 579.66 -414.37, 591.46 -422.38 M569.95 -409.64 C577.32 -414.7, 586.25 -419.56, 591.46 -422.38" stroke="#1e1e1e" stroke-width="2" fill="none"></path></g><g transform="translate(464.7432640682235 929.4861296058411) rotate(180.76021425588812 295.63282330675827 -210.55836367684913)"><path d="M566.79 -426.45 C571.5 -426.86, 578.07 -422.75, 591.46 -422.38 M566.79 -426.45 C575.21 -425.1, 585.34 -423.55, 591.46 -422.38" stroke="#1e1e1e" stroke-width="2" fill="none"></path></g></g><mask></mask><g transform="translate(655.8986385410019 253.04982746365764) rotate(26.248575424615233 34.99649865084211 8.172076695692368)"><text x="0" y="11.45398269668241" font-family="Virgil, Segoe UI Emoji" font-size="13.075322713107772px" fill="#1e1e1e" text-anchor="start" style="white-space: pre;" direction="ltr" dominant-baseline="alphabetic">OffRamping</text></g><g transform="translate(594.7314392853164 366.9334975160827) rotate(29.325326341437684 40.1234130859375 9.98046875)"><text x="0" y="13.988624999999999" font-family="Virgil, Segoe UI Emoji" font-size="15.96875px" fill="#1e1e1e" text-anchor="start" style="white-space: pre;" direction="ltr" dominant-baseline="alphabetic">ONRamping</text></g><g stroke-linecap="round"><g transform="translate(941.3258983979308 468.5527927441745) rotate(0 -222.99227754174598 -111.54282510807836)"><path d="M-0.04 0.45 C-41.49 -13.22, -174.75 -43.89, -248.93 -81.22 C-323.11 -118.55, -412.63 -200.06, -445.12 -223.53 M-1.52 -0.36 C-43.12 -13.92, -175.88 -42.8, -249.95 -79.84 C-324.03 -116.88, -413.15 -198.54, -445.95 -222.62" stroke="#1e1e1e" stroke-width="2" fill="none"></path></g><g transform="translate(941.3258983979308 468.5527927441745) rotate(0 -222.99227754174598 -111.54282510807836)"><path d="M-422.29 -214.55 C-428.21 -217.06, -436.06 -219.25, -445.95 -222.62 M-422.29 -214.55 C-428.25 -216.31, -433.04 -218.06, -445.95 -222.62" stroke="#1e1e1e" stroke-width="2" fill="none"></path></g><g transform="translate(941.3258983979308 468.5527927441745) rotate(0 -222.99227754174598 -111.54282510807836)"><path d="M-433.01 -201.22 C-436.02 -207.46, -440.87 -213.38, -445.95 -222.62 M-433.01 -201.22 C-436.56 -206.2, -438.81 -211.1, -445.95 -222.62" stroke="#1e1e1e" stroke-width="2" fill="none"></path></g></g><mask></mask><g transform="translate(542.5339071514765 822.8620915379568) rotate(338.2680922303492 139.08776793833238 10.668823144776638)"><text x="0" y="14.95342251971893" font-family="Virgil, Segoe UI Emoji" font-size="17.070117031642617px" fill="#1e1e1e" text-anchor="start" style="white-space: pre;" direction="ltr" dominant-baseline="alphabetic">OffRamping / OnRamping Updates</text></g><g stroke-linecap="round"><g transform="translate(332.12554143483567 847.9310325937452) rotate(0 28.61898888488443 -250.60882657012726)"><path d="M-0.47 0.53 C9.05 -82.65, 48 -416.74, 57.7 -500.21 M1.49 -0.24 C10.88 -83.62, 47.95 -418.1, 57.3 -501.75" stroke="#2f9e44" stroke-width="2" fill="none"></path></g><g transform="translate(332.12554143483567 847.9310325937452) rotate(0 28.61898888488443 -250.60882657012726)"><path d="M63.2 -477.45 C62.23 -484.35, 61.11 -492.82, 57.3 -501.75 M63.2 -477.45 C60.5 -486.15, 58.6 -496.92, 57.3 -501.75" stroke="#2f9e44" stroke-width="2" fill="none"></path></g><g transform="translate(332.12554143483567 847.9310325937452) rotate(0 28.61898888488443 -250.60882657012726)"><path d="M46.2 -479.35 C51.22 -485.5, 56.11 -493.31, 57.3 -501.75 M46.2 -479.35 C50.04 -487.19, 54.66 -497.24, 57.3 -501.75" stroke="#2f9e44" stroke-width="2" fill="none"></path></g></g><mask></mask><g transform="translate(312.5117552593155 929.6535781973207) rotate(0 68.50027465820312 9.98046875)"><text x="0" y="13.988624999999999" font-family="Virgil, Segoe UI Emoji" font-size="15.96875px" fill="#1e1e1e" text-anchor="start" style="white-space: pre;" direction="ltr" dominant-baseline="alphabetic">Websocket Server</text></g><g transform="translate(191.92464082600233 552.1413016137024) rotate(275.77659151565234 143.6212921142578 9.493928626108058)"><text x="0" y="13.306690362353047" font-family="Virgil, Segoe UI Emoji" font-size="15.190285801772886px" fill="#1e1e1e" text-anchor="start" style="white-space: pre;" direction="ltr" dominant-baseline="alphabetic">Updates through webscoket connection</text></g><g stroke-linecap="round"><g transform="translate(413.81007069144425 359.588231427922) rotate(0 -27.10617112946784 245.22606095617056)"><path d="M0 0.18 C-9.01 81.88, -44.33 409.33, -53.39 491.22 M-1.46 -0.77 C-10.67 81.12, -45.82 407.78, -54.21 489.54" stroke="#2f9e44" stroke-width="2" fill="none"></path></g><g transform="translate(413.81007069144425 359.588231427922) rotate(0 -27.10617112946784 245.22606095617056)"><path d="M-60.25 465.27 C-57.57 474.36, -54.32 481.48, -54.21 489.54 M-60.25 465.27 C-57.49 475.29, -54.28 484.48, -54.21 489.54" stroke="#2f9e44" stroke-width="2" fill="none"></path></g><g transform="translate(413.81007069144425 359.588231427922) rotate(0 -27.10617112946784 245.22606095617056)"><path d="M-43.24 467.07 C-46.68 475.51, -49.53 481.99, -54.21 489.54 M-43.24 467.07 C-47.21 476.32, -50.72 484.81, -54.21 489.54" stroke="#2f9e44" stroke-width="2" fill="none"></path></g></g><mask></mask><g transform="translate(225.7255920580381 595.9439539996444) rotate(95.51827933918021 184.18705749511716 9.243754370137921)"><text x="0" y="12.956046125185313" font-family="Virgil, Segoe UI Emoji" font-size="14.790006992220677px" fill="#1e1e1e" text-anchor="start" style="white-space: pre;" direction="ltr" dominant-baseline="alphabetic">P2P NOtify updates through webscoket connection</text></g><g transform="translate(1252.453368021023 393.7630934812748) rotate(0 100.32872772216797 48.30031352714311)"><text x="0" y="33.84885971982189" font-family="Virgil, Segoe UI Emoji" font-size="38.64025082171449px" fill="#1e1e1e" text-anchor="start" style="white-space: pre;" direction="ltr" dominant-baseline="alphabetic">End User</text><text x="0" y="82.149173246965" font-family="Virgil, Segoe UI Emoji" font-size="38.64025082171449px" fill="#1e1e1e" text-anchor="start" style="white-space: pre;" direction="ltr" dominant-baseline="alphabetic">Wallet App</text></g><g transform="translate(475.18569864463643 405.77332641104255) rotate(56.74055478030053 84.75898742675781 9.878636280396147)"><text x="0" y="13.84589661060324" font-family="Virgil, Segoe UI Emoji" font-size="15.805818048633835px" fill="#1e1e1e" text-anchor="start" style="white-space: pre;" direction="ltr" dominant-baseline="alphabetic">Creating transactions</text></g><g stroke-linecap="round"><g transform="translate(360.1838412034126 307.00739673528665) rotate(0 -103.93401534957485 59.66351639206972)"><path d="M0.65 0.47 C-33.83 20.58, -173.12 99.86, -207.69 119.65 M-0.47 -0.33 C-35.01 19.49, -174.11 97.53, -208.52 117.66" stroke="#1e1e1e" stroke-width="2" fill="none"></path></g><g transform="translate(360.1838412034126 307.00739673528665) rotate(0 -103.93401534957485 59.66351639206972)"><path d="M-192.36 98.58 C-195.45 103.44, -199.56 109.37, -208.52 117.66 M-192.36 98.58 C-196.48 103.96, -200.67 108.49, -208.52 117.66" stroke="#1e1e1e" stroke-width="2" fill="none"></path></g><g transform="translate(360.1838412034126 307.00739673528665) rotate(0 -103.93401534957485 59.66351639206972)"><path d="M-183.88 113.43 C-188.79 114.92, -194.85 117.44, -208.52 117.66 M-183.88 113.43 C-190.4 114.55, -196.99 114.87, -208.52 117.66" stroke="#1e1e1e" stroke-width="2" fill="none"></path></g></g><mask></mask><g stroke-linecap="round" transform="translate(50.95240765426388 1239.218138593382) rotate(0 90.8345039989864 72.7421803704849)"><path d="M32 0 C65.83 -0.29, 99.92 0.97, 149.67 0 M32 0 C64.03 -0.12, 96.52 -0.54, 149.67 0 M149.67 0 C171.15 -0.11, 180.92 10.84, 181.67 32 M149.67 0 C169.55 1.04, 181.05 10.16, 181.67 32 M181.67 32 C179.95 58.52, 181.27 87.62, 181.67 113.48 M181.67 32 C181.44 54.02, 182.06 78.51, 181.67 113.48 M181.67 113.48 C180.19 134.57, 169.9 144.96, 149.67 145.48 M181.67 113.48 C182.5 133.31, 171.47 145.29, 149.67 145.48 M149.67 145.48 C115.07 145.68, 79.91 143.49, 32 145.48 M149.67 145.48 C114.33 147.18, 77.76 145.72, 32 145.48 M32 145.48 C9.42 143.62, 1.47 135.77, 0 113.48 M32 145.48 C9.01 145.41, -1.21 136.54, 0 113.48 M0 113.48 C1.15 88.45, 0.98 65.07, 0 32 M0 113.48 C-0.63 87.17, -0.09 61.36, 0 32 M0 32 C1 11.81, 11.06 1.89, 32 0 M0 32 C2.22 8.54, 10.74 -0.79, 32 0" stroke="#1e1e1e" stroke-width="2" fill="none"></path></g><g transform="translate(111.08515840434245 1301.828617731906) rotate(0 30.719970703125 10)"><text x="0" y="14.016" font-family="Virgil, Segoe UI Emoji" font-size="16px" fill="#1e1e1e" text-anchor="start" style="white-space: pre;" direction="ltr" dominant-baseline="alphabetic">Broswer</text></g><g stroke-linecap="round" transform="translate(446.0077078316782 1225.9966607517108) rotate(0 90.8345039989864 78.85063946675183)"><path d="M32 0 C70.26 -2.73, 110.5 -2.2, 149.67 0 M32 0 C66.54 1.95, 101.76 1.58, 149.67 0 M149.67 0 C171.81 -1.93, 183.62 8.92, 181.67 32 M149.67 0 C169.54 0.57, 179.4 11.52, 181.67 32 M181.67 32 C182.65 63.46, 182.61 90.22, 181.67 125.7 M181.67 32 C181.71 60.95, 182.54 91.71, 181.67 125.7 M181.67 125.7 C183.2 145.75, 169.41 158.54, 149.67 157.7 M181.67 125.7 C180.9 144.97, 170.69 156.25, 149.67 157.7 M149.67 157.7 C117.12 156.88, 85.65 156.23, 32 157.7 M149.67 157.7 C105.94 158.02, 62.72 159.14, 32 157.7 M32 157.7 C10.72 156.62, 1.51 146.37, 0 125.7 M32 157.7 C8.68 156.38, -0.8 147.42, 0 125.7 M0 125.7 C1 93.61, -0.26 58.57, 0 32 M0 125.7 C-1.04 90.55, -0.35 57.37, 0 32 M0 32 C-0.87 10.36, 10.95 0.98, 32 0 M0 32 C2.15 11.65, 9.92 0.21, 32 0" stroke="#1e1e1e" stroke-width="2" fill="none"></path></g><g transform="translate(490.81824790244195 1274.8473002184628) rotate(0 46.023963928222656 30)"><text x="46.023963928222656" y="14.016" font-family="Virgil, Segoe UI Emoji" font-size="16px" fill="#1e1e1e" text-anchor="middle" style="white-space: pre;" direction="ltr" dominant-baseline="alphabetic">React App</text><text x="46.023963928222656" y="34.016" font-family="Virgil, Segoe UI Emoji" font-size="16px" fill="#1e1e1e" text-anchor="middle" style="white-space: pre;" direction="ltr" dominant-baseline="alphabetic"></text><text x="46.023963928222656" y="54.016" font-family="Virgil, Segoe UI Emoji" font-size="16px" fill="#1e1e1e" text-anchor="middle" style="white-space: pre;" direction="ltr" dominant-baseline="alphabetic">tRPC Client</text></g><g transform="translate(492.7732811584092 1253.1371416938764) rotate(0 37.046254986873066 22.55069249355182)"><text x="0" y="15.803525299481127" font-family="Virgil, Segoe UI Emoji" font-size="18.040553994841467px" fill="#1e1e1e" text-anchor="start" style="white-space: pre;" direction="ltr" dominant-baseline="alphabetic">Bank UI</text><text x="0" y="38.35421779303296" font-family="Virgil, Segoe UI Emoji" font-size="18.040553994841467px" fill="#1e1e1e" text-anchor="start" style="white-space: pre;" direction="ltr" dominant-baseline="alphabetic"></text></g><g stroke-linecap="round"><g transform="translate(233.6214156522367 1295.039565774725) rotate(0 105.57858773976585 -0.8573019436220761)"><path d="M0.41 0 C35.89 -0.28, 176.72 -1.35, 212 -1.71 M-0.84 -1.05 C34.62 -1.14, 175.96 -0.29, 211.37 -0.32" stroke="#1e1e1e" stroke-width="2" fill="none"></path></g><g transform="translate(233.6214156522367 1295.039565774725) rotate(0 105.57858773976585 -0.8573019436220761)"><path d="M187.85 8.16 C193.16 7.18, 197.99 5.35, 211.37 -0.32 M187.85 8.16 C194.39 7.05, 198.82 3.95, 211.37 -0.32" stroke="#1e1e1e" stroke-width="2" fill="none"></path></g><g transform="translate(233.6214156522367 1295.039565774725) rotate(0 105.57858773976585 -0.8573019436220761)"><path d="M187.9 -8.94 C193.19 -6.06, 198.01 -4.03, 211.37 -0.32 M187.9 -8.94 C194.27 -6.01, 198.68 -5.05, 211.37 -0.32" stroke="#1e1e1e" stroke-width="2" fill="none"></path></g></g><mask></mask><g transform="translate(261.09140506939343 1262.0426781241722) rotate(0 74.12796783447266 10)"><text x="0" y="14.016" font-family="Virgil, Segoe UI Emoji" font-size="16px" fill="#1e1e1e" text-anchor="start" style="white-space: pre;" direction="ltr" dominant-baseline="alphabetic">transaction token </text></g><g stroke-linecap="round" transform="translate(953.8310021135229 1215.2170729764896) rotate(0 111.44871355156914 87.42701416576762)"><path d="M32 0 C80.51 2.25, 133.03 -0.2, 190.9 0 M32 0 C90.71 0.09, 150.39 0.11, 190.9 0 M190.9 0 C211.19 -0.11, 221.51 10.8, 222.9 32 M190.9 0 C213.2 0.09, 224.29 9.03, 222.9 32 M222.9 32 C224.1 60.18, 222.33 88.66, 222.9 142.85 M222.9 32 C222.77 59.49, 223.42 87.15, 222.9 142.85 M222.9 142.85 C223 163.25, 210.94 173.87, 190.9 174.85 M222.9 142.85 C223.99 166.2, 210.34 176.73, 190.9 174.85 M190.9 174.85 C147.56 175.7, 103.45 176.26, 32 174.85 M190.9 174.85 C132.61 177.02, 74.91 176.38, 32 174.85 M32 174.85 C11.66 175.76, 1.52 163.83, 0 142.85 M32 174.85 C12.28 174.93, -0.99 165.45, 0 142.85 M0 142.85 C1.61 113.44, 0.93 86.2, 0 32 M0 142.85 C-0.94 112.55, 0.55 81.5, 0 32 M0 32 C-0.53 10.24, 9.79 1.43, 32 0 M0 32 C1.73 9.22, 9.62 -0.05, 32 0" stroke="#1e1e1e" stroke-width="2" fill="none"></path></g><g transform="translate(1003.3176042800377 1285.083098940292) rotate(0 56.92796325683588 20)"><text x="0" y="14.016" font-family="Virgil, Segoe UI Emoji" font-size="16px" fill="#1e1e1e" text-anchor="start" style="white-space: pre;" direction="ltr" dominant-baseline="alphabetic">BANK SERVER</text><text x="0" y="34.016" font-family="Virgil, Segoe UI Emoji" font-size="16px" fill="#1e1e1e" text-anchor="start" style="white-space: pre;" direction="ltr" dominant-baseline="alphabetic">TRPC SERVER</text></g><g transform="translate(260.1809619481164 1303.045403158311) rotate(0 68.50181181309132 50.14719178545221)"><text x="0" y="14.057260801297963" font-family="Virgil, Segoe UI Emoji" font-size="16.047101371344706px" fill="#1e1e1e" text-anchor="start" style="white-space: pre;" direction="ltr" dominant-baseline="alphabetic">NEtbanking token</text><text x="0" y="34.11613751547885" font-family="Virgil, Segoe UI Emoji" font-size="16.047101371344706px" fill="#1e1e1e" text-anchor="start" style="white-space: pre;" direction="ltr" dominant-baseline="alphabetic"> </text><text x="0" y="54.17501422965973" font-family="Virgil, Segoe UI Emoji" font-size="16.047101371344706px" fill="#1e1e1e" text-anchor="start" style="white-space: pre;" direction="ltr" dominant-baseline="alphabetic">(Got one during </text><text x="0" y="74.2338909438406" font-family="Virgil, Segoe UI Emoji" font-size="16.047101371344706px" fill="#1e1e1e" text-anchor="start" style="white-space: pre;" direction="ltr" dominant-baseline="alphabetic">signup process on</text><text x="0" y="94.29276765802149" font-family="Virgil, Segoe UI Emoji" font-size="16.047101371344706px" fill="#1e1e1e" text-anchor="start" style="white-space: pre;" direction="ltr" dominant-baseline="alphabetic">wallet App )</text></g><g stroke-linecap="round"><g transform="translate(631.9918883398245 1245.6419107209013) rotate(0 160.5771054818548 10.456713398402144)"><path d="M0.27 1.08 C53.46 4.41, 266.44 17.04, 319.95 20.31 M-1.05 0.6 C52.44 3.53, 268.55 15.36, 322.2 18.4" stroke="#1e1e1e" stroke-width="2" fill="none"></path></g><g transform="translate(631.9918883398245 1245.6419107209013) rotate(0 160.5771054818548 10.456713398402144)"><path d="M298.27 25.63 C308.9 21.43, 316.63 21.1, 322.2 18.4 M298.27 25.63 C307.1 23.32, 316.28 19.71, 322.2 18.4" stroke="#1e1e1e" stroke-width="2" fill="none"></path></g><g transform="translate(631.9918883398245 1245.6419107209013) rotate(0 160.5771054818548 10.456713398402144)"><path d="M299.22 8.56 C309.55 10.67, 316.92 16.66, 322.2 18.4 M299.22 8.56 C307.58 12.54, 316.42 15.21, 322.2 18.4" stroke="#1e1e1e" stroke-width="2" fill="none"></path></g></g><mask></mask><g transform="translate(683.6661102063091 1219.5729416283598) rotate(5.896064702397918 82.64202149838809 12.458102817052009)"><text x="0" y="17.461276908380096" font-family="Virgil, Segoe UI Emoji" font-size="19.932964507283213px" fill="#1e1e1e" text-anchor="start" style="white-space: pre;" direction="ltr" dominant-baseline="alphabetic">Verify login token</text></g><g stroke-linecap="round"><g transform="translate(950.4808399391359 1302.9131021543794) rotate(0 -161.5009874008785 -12.078838144933172)"><path d="M-0.07 -0.33 C-53.77 -4.1, -269.17 -19.89, -322.93 -23.83 M-1.57 -1.54 C-54.85 -5.04, -267.7 -18.91, -320.81 -22.46" stroke="#1e1e1e" stroke-width="2" fill="none"></path></g><g transform="translate(950.4808399391359 1302.9131021543794) rotate(0 -161.5009874008785 -12.078838144933172)"><path d="M-296.8 -29.45 C-303.11 -29.68, -308.81 -27.54, -320.81 -22.46 M-296.8 -29.45 C-302.76 -27.36, -308.71 -26.21, -320.81 -22.46" stroke="#1e1e1e" stroke-width="2" fill="none"></path></g><g transform="translate(950.4808399391359 1302.9131021543794) rotate(0 -161.5009874008785 -12.078838144933172)"><path d="M-297.93 -12.39 C-303.8 -16.67, -309.23 -18.58, -320.81 -22.46 M-297.93 -12.39 C-303.68 -14.79, -309.33 -18.13, -320.81 -22.46" stroke="#1e1e1e" stroke-width="2" fill="none"></path></g></g><mask></mask><g transform="translate(706.1162728071625 1296.7014372053204) rotate(5.934227140171304 65.92796325683594 20)"><text x="0" y="14.016" font-family="Virgil, Segoe UI Emoji" font-size="16px" fill="#1e1e1e" text-anchor="start" style="white-space: pre;" direction="ltr" dominant-baseline="alphabetic">Return lists of</text><text x="0" y="34.016" font-family="Virgil, Segoe UI Emoji" font-size="16px" fill="#1e1e1e" text-anchor="start" style="white-space: pre;" direction="ltr" dominant-baseline="alphabetic"> avaibalbe banks</text></g><g stroke-linecap="round"><g transform="translate(634.9210048703236 1345.146615543195) rotate(0 158.47267317823065 12.587523638682342)"><path d="M-0.8 0.43 C52.29 4.48, 264.68 20.34, 317.75 24.34 M0.98 -0.39 C54 3.81, 264.28 21.25, 316.94 25.57" stroke="#1e1e1e" stroke-width="2" fill="none"></path></g><g transform="translate(634.9210048703236 1345.146615543195) rotate(0 158.47267317823065 12.587523638682342)"><path d="M292.83 32.16 C299.18 31.23, 303.11 29.47, 316.94 25.57 M292.83 32.16 C299.66 30.47, 304.38 27.84, 316.94 25.57" stroke="#1e1e1e" stroke-width="2" fill="none"></path></g><g transform="translate(634.9210048703236 1345.146615543195) rotate(0 158.47267317823065 12.587523638682342)"><path d="M294.23 15.11 C300.27 18.17, 303.87 20.4, 316.94 25.57 M294.23 15.11 C300.54 17.83, 304.9 19.61, 316.94 25.57" stroke="#1e1e1e" stroke-width="2" fill="none"></path></g></g><mask></mask><g transform="translate(668.769438336501 1368.8192074202411) rotate(4.693394213451858 106.8585616404983 41.97993389461374)"><text x="0" y="14.709768836672653" font-family="Virgil, Segoe UI Emoji" font-size="16.791973557845495px" fill="#1e1e1e" text-anchor="start" style="white-space: pre;" direction="ltr" dominant-baseline="alphabetic">First Login singnups user </text><text x="0" y="35.69973578397952" font-family="Virgil, Segoe UI Emoji" font-size="16.791973557845495px" fill="#1e1e1e" text-anchor="start" style="white-space: pre;" direction="ltr" dominant-baseline="alphabetic">into diff banks (Use </text><text x="0" y="56.68970273128639" font-family="Virgil, Segoe UI Emoji" font-size="16.791973557845495px" fill="#1e1e1e" text-anchor="start" style="white-space: pre;" direction="ltr" dominant-baseline="alphabetic">these credentials for </text><text x="0" y="77.67966967859326" font-family="Virgil, Segoe UI Emoji" font-size="16.791973557845495px" fill="#1e1e1e" text-anchor="start" style="white-space: pre;" direction="ltr" dominant-baseline="alphabetic">future logins)</text></g><g stroke-linecap="round"><g transform="translate(564.3557497699562 1392.6422938478609) rotate(0 226.99337753553624 160.37571462386757)"><path d="M-0.75 -1.18 C15.26 52.46, 20.92 318.84, 96.83 320.7 C172.75 322.57, 395.39 61.98, 454.74 10.01 M1.05 0.81 C16.94 54.7, 20.88 320.75, 96.44 321.93 C172 323.11, 395.04 59.96, 454.42 7.91" stroke="#1e1e1e" stroke-width="2" fill="none"></path></g><g transform="translate(564.3557497699562 1392.6422938478609) rotate(0 226.99337753553624 160.37571462386757)"><path d="M444.07 30.67 C446.06 24.26, 450.78 15.68, 454.42 7.91 M444.07 30.67 C447.81 22.95, 451.96 15.37, 454.42 7.91" stroke="#1e1e1e" stroke-width="2" fill="none"></path></g><g transform="translate(564.3557497699562 1392.6422938478609) rotate(0 226.99337753553624 160.37571462386757)"><path d="M431.86 18.7 C438.15 16.69, 447.29 12.44, 454.42 7.91 M431.86 18.7 C439.63 15.09, 447.91 11.56, 454.42 7.91" stroke="#1e1e1e" stroke-width="2" fill="none"></path></g></g><mask></mask><g transform="translate(640.3328485691767 1545.352520369748) rotate(0 70.66394805908203 10)"><text x="0" y="14.016" font-family="Virgil, Segoe UI Emoji" font-size="16px" fill="#1e1e1e" text-anchor="start" style="white-space: pre;" direction="ltr" dominant-baseline="alphabetic">On Ramp/OffRamp</text></g><g transform="translate(644.6995382042589 1573.1472358559747) rotate(0 76.03997039794922 40)"><text x="0" y="14.016" font-family="Virgil, Segoe UI Emoji" font-size="16px" fill="#1e1e1e" text-anchor="start" style="white-space: pre;" direction="ltr" dominant-baseline="alphabetic">Payload {</text><text x="0" y="34.016" font-family="Virgil, Segoe UI Emoji" font-size="16px" fill="#1e1e1e" text-anchor="start" style="white-space: pre;" direction="ltr" dominant-baseline="alphabetic">transaction Token </text><text x="0" y="54.016" font-family="Virgil, Segoe UI Emoji" font-size="16px" fill="#1e1e1e" text-anchor="start" style="white-space: pre;" direction="ltr" dominant-baseline="alphabetic">from wallet App</text><text x="0" y="74.016" font-family="Virgil, Segoe UI Emoji" font-size="16px" fill="#1e1e1e" text-anchor="start" style="white-space: pre;" direction="ltr" dominant-baseline="alphabetic">}</text></g><g stroke-linecap="round"><g transform="translate(985.4730028869054 1393.4420817782286) rotate(0 -212.7287566560756 71.09315956965054)"><path d="M0.35 1.12 C-36.75 26.3, -151.9 152.29, -222.93 150.54 C-293.95 148.78, -392.11 17.2, -425.81 -9.4 M-0.93 0.66 C-38.19 26.02, -153.65 153.1, -224.08 151.58 C-294.51 150.05, -390 18.13, -423.49 -8.5" stroke="#1e1e1e" stroke-width="2" fill="none"></path></g><g transform="translate(985.4730028869054 1393.4420817782286) rotate(0 -212.7287566560756 71.09315956965054)"><path d="M-401.01 2.44 C-405.18 -1.11, -414.71 -5.25, -423.49 -8.5 M-401.01 2.44 C-406.1 -0.11, -411.53 -3.57, -423.49 -8.5" stroke="#1e1e1e" stroke-width="2" fill="none"></path></g><g transform="translate(985.4730028869054 1393.4420817782286) rotate(0 -212.7287566560756 71.09315956965054)"><path d="M-413.3 14.33 C-414.08 7.53, -420.29 0.16, -423.49 -8.5 M-413.3 14.33 C-415.48 9.05, -418.03 2.8, -423.49 -8.5" stroke="#1e1e1e" stroke-width="2" fill="none"></path></g></g><mask></mask><g transform="translate(685.8592678095474 1472.7133742490798) rotate(0 75.45594787597656 20)"><text x="0" y="14.016" font-family="Virgil, Segoe UI Emoji" font-size="16px" fill="#1e1e1e" text-anchor="start" style="white-space: pre;" direction="ltr" dominant-baseline="alphabetic">Validate token</text><text x="0" y="34.016" font-family="Virgil, Segoe UI Emoji" font-size="16px" fill="#1e1e1e" text-anchor="start" style="white-space: pre;" direction="ltr" dominant-baseline="alphabetic">Verify enough funds</text></g><g stroke-linecap="round"><g transform="translate(497.78124613611965 1385.3866850814936) rotate(0 286.2814567747173 238.75689654493948)"><path d="M-0.11 1.03 C11.8 80.36, -25.16 474.14, 70.55 475.55 C166.27 476.96, 490.29 87.21, 574.18 9.48 M-1.62 0.52 C10.74 80.08, -22.97 475.33, 72.83 476.98 C168.63 478.64, 489.68 88.29, 573.16 10.43" stroke="#1e1e1e" stroke-width="2" fill="none"></path></g><g transform="translate(497.78124613611965 1385.3866850814936) rotate(0 286.2814567747173 238.75689654493948)"><path d="M563.35 33.42 C567.36 26.86, 567.54 22.25, 573.16 10.43 M563.35 33.42 C565.02 28.05, 569.22 23.23, 573.16 10.43" stroke="#1e1e1e" stroke-width="2" fill="none"></path></g><g transform="translate(497.78124613611965 1385.3866850814936) rotate(0 286.2814567747173 238.75689654493948)"><path d="M550.87 21.74 C557.65 17.82, 560.65 15.84, 573.16 10.43 M550.87 21.74 C555.48 19.28, 562.68 17.28, 573.16 10.43" stroke="#1e1e1e" stroke-width="2" fill="none"></path></g></g><mask></mask><g transform="translate(535.2408931019282 1750.391457515679) rotate(0 69.09596252441406 10)"><text x="0" y="14.016" font-family="Virgil, Segoe UI Emoji" font-size="16px" fill="#1e1e1e" text-anchor="start" style="white-space: pre;" direction="ltr" dominant-baseline="alphabetic">Last confirmation</text></g><g stroke-linecap="round"><g transform="translate(1106.0345624199701 1394.5797395956472) rotate(0 -1.995931119945908 94.93290940606414)"><path d="M0.81 0.47 C0.17 32.32, -2.99 158.6, -3.81 190.19 M-0.22 -0.32 C-1.04 31.28, -3.98 157.18, -4.8 188.58" stroke="#1971c2" stroke-width="2" fill="none"></path></g><g transform="translate(1106.0345624199701 1394.5797395956472) rotate(0 -1.995931119945908 94.93290940606414)"><path d="M-12.77 164.89 C-9.73 171.92, -6.47 178.57, -4.8 188.58 M-12.77 164.89 C-10.28 173.12, -7.26 181.17, -4.8 188.58" stroke="#1971c2" stroke-width="2" fill="none"></path></g><g transform="translate(1106.0345624199701 1394.5797395956472) rotate(0 -1.995931119945908 94.93290940606414)"><path d="M4.32 165.31 C2.16 172.33, 0.22 178.85, -4.8 188.58 M4.32 165.31 C0.56 173.53, -2.67 181.43, -4.8 188.58" stroke="#1971c2" stroke-width="2" fill="none"></path></g></g><mask></mask><g stroke-linecap="round" transform="translate(1011.7680618816723 1589.5514703929957) rotate(0 93.4263731103058 101.79872192473385)"><path d="M117.5 25.5 C129.08 38.48, 143.26 52.05, 163.35 76.5 M117.5 25.5 C133.91 43.11, 147.94 59.97, 163.35 76.5 M163.35 76.5 C188.02 100.5, 185.43 101.88, 163.35 127.5 M163.35 76.5 C184.78 103.15, 185.95 100.97, 163.35 127.5 M163.35 127.5 C148.54 143.91, 132.45 162.61, 117.5 178.1 M163.35 127.5 C145.14 148.17, 128.66 167.27, 117.5 178.1 M117.5 178.1 C93.75 204.38, 93.48 204.65, 70.5 178.1 M117.5 178.1 C92.12 201.61, 93.49 204.98, 70.5 178.1 M70.5 178.1 C58.62 165.55, 48.15 153.73, 23.5 127.5 M70.5 178.1 C61.6 167.9, 52.06 157.72, 23.5 127.5 M23.5 127.5 C0.36 103.64, 0.02 101.24, 23.5 76.5 M23.5 127.5 C-1.81 100.66, 1.96 103.98, 23.5 76.5 M23.5 76.5 C40.09 57.04, 62.08 36.08, 70.5 25.5 M23.5 76.5 C42.55 57.24, 60.39 36.38, 70.5 25.5 M70.5 25.5 C95.74 0.33, 95.15 -1.01, 117.5 25.5 M70.5 25.5 C92.35 -0.54, 91.77 0.9, 117.5 25.5" stroke="#1e1e1e" stroke-width="2" fill="none"></path></g><g transform="translate(1067.7732711419035 1671.4508313553627) rotate(0 37.20797729492182 20)"><text x="37.207977294921875" y="14.016" font-family="Virgil, Segoe UI Emoji" font-size="16px" fill="#1e1e1e" text-anchor="middle" style="white-space: pre;" direction="ltr" dominant-baseline="alphabetic">Redis</text><text x="37.207977294921875" y="34.016" font-family="Virgil, Segoe UI Emoji" font-size="16px" fill="#1e1e1e" text-anchor="middle" style="white-space: pre;" direction="ltr" dominant-baseline="alphabetic">PUB/SUB</text></g><g stroke-linecap="round" transform="translate(1226.4852214245707 1421.5921558918667) rotate(0 104.71660599828465 93.16647869999542)"><path d="M131.25 23.5 C142.32 33.37, 154.87 46.95, 183.18 70.5 M131.25 23.5 C143.31 34.15, 156.97 46.94, 183.18 70.5 M183.18 70.5 C211.25 94.94, 210.08 93.16, 183.18 117.5 M183.18 70.5 C211.43 95.08, 207.76 95.45, 183.18 117.5 M183.18 117.5 C166.42 130.06, 150.6 145.71, 131.25 162.83 M183.18 117.5 C169.5 129.83, 155.96 142.93, 131.25 162.83 M131.25 162.83 C103.28 185.6, 104.79 184.98, 78.75 162.83 M131.25 162.83 C106.43 184.08, 105.08 186.29, 78.75 162.83 M78.75 162.83 C65.07 150.61, 54.6 141.74, 26.25 117.5 M78.75 162.83 C63.49 149.06, 46.7 134.38, 26.25 117.5 M26.25 117.5 C1.89 93.91, -0.08 92.65, 26.25 70.5 M26.25 117.5 C-2 95.95, 1.46 94.12, 26.25 70.5 M26.25 70.5 C38.78 59.09, 54.21 47.4, 78.75 23.5 M26.25 70.5 C47.31 52.33, 68.42 33.14, 78.75 23.5 M78.75 23.5 C103.13 -0.59, 105.77 0.97, 131.25 23.5 M78.75 23.5 C104.66 2.29, 106.49 -1.11, 131.25 23.5" stroke="#1e1e1e" stroke-width="2" fill="none"></path></g><g transform="translate(1288.247561899299 1494.6753952418644) rotate(0 43.09596252441406 20)"><text x="43.09596252441406" y="14.016" font-family="Virgil, Segoe UI Emoji" font-size="16px" fill="#1e1e1e" text-anchor="middle" style="white-space: pre;" direction="ltr" dominant-baseline="alphabetic">Postgress </text><text x="43.09596252441406" y="34.016" font-family="Virgil, Segoe UI Emoji" font-size="16px" fill="#1e1e1e" text-anchor="middle" style="white-space: pre;" direction="ltr" dominant-baseline="alphabetic">DB</text></g><g stroke-linecap="round"><g transform="translate(1173.0243269472473 1391.071101308025) rotate(0 46.792823083970916 40.23362445854815)"><path d="M-0.64 1.01 C14.65 13.94, 76.48 65.77, 91.87 78.57 M1.22 0.49 C16.89 13.53, 78.75 66.97, 94.23 79.98" stroke="#1e1e1e" stroke-width="2" fill="none"></path></g><g transform="translate(1173.0243269472473 1391.071101308025) rotate(0 46.792823083970916 40.23362445854815)"><path d="M70.81 71.23 C79.83 72.95, 85.02 75.35, 94.23 79.98 M70.81 71.23 C75.56 73.67, 80.53 74.18, 94.23 79.98" stroke="#1e1e1e" stroke-width="2" fill="none"></path></g><g transform="translate(1173.0243269472473 1391.071101308025) rotate(0 46.792823083970916 40.23362445854815)"><path d="M81.91 58.22 C87.58 63.92, 89.33 70.36, 94.23 79.98 M81.91 58.22 C84.19 63.49, 86.8 66.77, 94.23 79.98" stroke="#1e1e1e" stroke-width="2" fill="none"></path></g></g><mask></mask><g stroke-linecap="round"><g transform="translate(1288.4539135289908 1454.8151003205348) rotate(0 -53.24121089209825 -47.5572708111697)"><path d="M-0.2 0.79 C-17.86 -14.78, -87.69 -78.32, -105.23 -94.31 M-1.76 0.15 C-19.66 -15.65, -88.84 -80.25, -106.29 -95.9" stroke="#1e1e1e" stroke-width="2" fill="none"></path></g><g transform="translate(1288.4539135289908 1454.8151003205348) rotate(0 -53.24121089209825 -47.5572708111697)"><path d="M-83.19 -86.32 C-90.15 -90.17, -98.12 -93.98, -106.29 -95.9 M-83.19 -86.32 C-90.82 -88.39, -97.88 -91.66, -106.29 -95.9" stroke="#1e1e1e" stroke-width="2" fill="none"></path></g><g transform="translate(1288.4539135289908 1454.8151003205348) rotate(0 -53.24121089209825 -47.5572708111697)"><path d="M-94.75 -73.72 C-97.44 -82.1, -101.23 -90.46, -106.29 -95.9 M-94.75 -73.72 C-98.64 -79.85, -102.07 -87.08, -106.29 -95.9" stroke="#1e1e1e" stroke-width="2" fill="none"></path></g></g><mask></mask><g stroke-linecap="round" transform="translate(797.966506761603 145.5703526217535) rotate(0 89.42295921147632 57.7926056331013)"><path d="M28.9 0 C56.33 -0.96, 83.6 1.91, 149.95 0 M28.9 0 C59.35 0.33, 90.9 -0.56, 149.95 0 M149.95 0 C170.47 1.66, 179.99 7.93, 178.85 28.9 M149.95 0 C170.34 0.6, 180.52 9.01, 178.85 28.9 M178.85 28.9 C179.42 44.72, 177.33 55.8, 178.85 86.69 M178.85 28.9 C179.34 43.08, 179.59 55.35, 178.85 86.69 M178.85 86.69 C179.5 105.11, 170.67 117.41, 149.95 115.59 M178.85 86.69 C179.49 106.34, 170.6 115.33, 149.95 115.59 M149.95 115.59 C105.63 115.99, 62.82 113.98, 28.9 115.59 M149.95 115.59 C103.8 116.94, 58.94 116.35, 28.9 115.59 M28.9 115.59 C9.13 117.25, 1.37 106.36, 0 86.69 M28.9 115.59 C10.51 117.77, 0.49 106.18, 0 86.69 M0 86.69 C-2.34 65.86, 0.85 49.72, 0 28.9 M0 86.69 C1.08 73.99, 0.48 60.82, 0 28.9 M0 28.9 C-1.03 8.37, 8 -0.18, 28.9 0 M0 28.9 C-1.93 9.87, 7.48 2.24, 28.9 0" stroke="#1e1e1e" stroke-width="2" fill="none"></path></g><g transform="translate(845.2350222088251 191.6163587753726) rotate(0 44.57597351074219 20)"><text x="0" y="14.016" font-family="Virgil, Segoe UI Emoji" font-size="16px" fill="#1e1e1e" text-anchor="start" style="white-space: pre;" direction="ltr" dominant-baseline="alphabetic">Netbanking </text><text x="0" y="34.016" font-family="Virgil, Segoe UI Emoji" font-size="16px" fill="#1e1e1e" text-anchor="start" style="white-space: pre;" direction="ltr" dominant-baseline="alphabetic">Client</text></g><g stroke-linecap="round"><g transform="translate(884.4580453262065 263.5342018800336) rotate(0 36.33294880459772 51.74170839858908)"><path d="M0.49 -1.12 C12.58 16.23, 61.17 85.86, 73.38 103.65 M-0.71 0.91 C11.14 18.4, 60.05 87.47, 72.35 104.6" stroke="#e03131" stroke-width="2" fill="none"></path></g><g transform="translate(884.4580453262065 263.5342018800336) rotate(0 36.33294880459772 51.74170839858908)"><path d="M51.76 90.42 C57.43 95.29, 65.01 101.12, 72.35 104.6 M51.76 90.42 C60.13 95.44, 66.77 101.57, 72.35 104.6" stroke="#e03131" stroke-width="2" fill="none"></path></g><g transform="translate(884.4580453262065 263.5342018800336) rotate(0 36.33294880459772 51.74170839858908)"><path d="M65.69 80.5 C66.2 89.08, 68.65 98.56, 72.35 104.6 M65.69 80.5 C68.87 89.26, 70.35 99.07, 72.35 104.6" stroke="#e03131" stroke-width="2" fill="none"></path></g></g><mask></mask><g stroke-linecap="round"><g transform="translate(501.02155559134144 185.01692030019132) rotate(0 145.96592558896708 10.500212683046328)"><path d="M-0.5 0.37 C22.84 1.89, 91.39 6.72, 140.21 10.09 C189.04 13.46, 267.22 18.51, 292.43 20.57 M1.44 -0.49 C24.63 1.06, 91.01 7.42, 139.45 11.09 C187.89 14.75, 266.72 19.92, 292.09 21.49" stroke="#e03131" stroke-width="2" fill="none"></path></g><g transform="translate(501.02155559134144 185.01692030019132) rotate(0 145.96592558896708 10.500212683046328)"><path d="M268.1 28.52 C276.23 26.98, 281.49 25.51, 292.09 21.49 M268.1 28.52 C274.2 25.94, 279.99 25.85, 292.09 21.49" stroke="#e03131" stroke-width="2" fill="none"></path></g><g transform="translate(501.02155559134144 185.01692030019132) rotate(0 145.96592558896708 10.500212683046328)"><path d="M269.19 11.45 C277.12 15.3, 282.03 19.23, 292.09 21.49 M269.19 11.45 C275.01 12.91, 280.55 16.85, 292.09 21.49" stroke="#e03131" stroke-width="2" fill="none"></path></g></g><mask></mask><g transform="translate(614.0022290016107 667.0341810803504) rotate(329.85251175583534 93.40742224533915 20.149356339037467)"><text x="0" y="14.120668922397456" font-family="Virgil, Segoe UI Emoji" font-size="16.119485071229974px" fill="#1e1e1e" text-anchor="start" style="white-space: pre;" direction="ltr" dominant-baseline="alphabetic">Signup on Netbanking to</text><text x="0" y="34.270025261434924" font-family="Virgil, Segoe UI Emoji" font-size="16.119485071229974px" fill="#1e1e1e" text-anchor="start" style="white-space: pre;" direction="ltr" dominant-baseline="alphabetic">access banks</text></g><g stroke-linecap="round"><g transform="translate(1006.2632825562356 362.048536765882) rotate(0 -35.053356149808394 -50.26774427746129)"><path d="M0.45 -1.06 C-5.11 -8.67, -21.1 -28.25, -32.9 -45 C-44.69 -61.74, -64.11 -92.03, -70.34 -101.53 M-0.78 1 C-5.97 -6.99, -18.91 -29.73, -30.54 -46.57 C-42.17 -63.42, -63.46 -91.01, -70.56 -100.08" stroke="#e03131" stroke-width="2" fill="none"></path></g><g transform="translate(1006.2632825562356 362.048536765882) rotate(0 -35.053356149808394 -50.26774427746129)"><path d="M-49.42 -86.73 C-58.36 -92.26, -61.96 -93.89, -70.56 -100.08 M-49.42 -86.73 C-55.98 -91.82, -63.32 -96.15, -70.56 -100.08" stroke="#e03131" stroke-width="2" fill="none"></path></g><g transform="translate(1006.2632825562356 362.048536765882) rotate(0 -35.053356149808394 -50.26774427746129)"><path d="M-62.94 -76.27 C-67.4 -85.36, -66.45 -90.51, -70.56 -100.08 M-62.94 -76.27 C-65.26 -84.69, -68.26 -92.38, -70.56 -100.08" stroke="#e03131" stroke-width="2" fill="none"></path></g></g><mask></mask><g transform="translate(991.1819329493924 273.25003753443644) rotate(358.91932419824104 99.70386020474632 14.78763452513472)"><text x="0" y="20.72634855042882" font-family="Virgil, Segoe UI Emoji" font-size="23.66021524021555px" fill="#1e1e1e" text-anchor="start" style="white-space: pre;" direction="ltr" dominant-baseline="alphabetic">Netbanking Token</text></g><g stroke-linecap="round"><g transform="translate(155.02618921921473 447.6041925098023) rotate(0 103.31956344799276 -61.804996673128144)"><path d="M-0.34 1 C34.06 -19.7, 172.33 -103.57, 206.97 -124.61 M1.69 0.48 C35.9 -19.98, 171.93 -102.28, 206.18 -123.09" stroke="#e03131" stroke-width="2" fill="none"></path></g><g transform="translate(155.02618921921473 447.6041925098023) rotate(0 103.31956344799276 -61.804996673128144)"><path d="M190.52 -103.6 C197.72 -109.87, 201.48 -115.76, 206.18 -123.09 M190.52 -103.6 C194.02 -107.42, 197.96 -113.43, 206.18 -123.09" stroke="#e03131" stroke-width="2" fill="none"></path></g><g transform="translate(155.02618921921473 447.6041925098023) rotate(0 103.31956344799276 -61.804996673128144)"><path d="M181.66 -118.23 C191.9 -119.37, 198.75 -120.15, 206.18 -123.09 M181.66 -118.23 C187.34 -118.52, 193.42 -121, 206.18 -123.09" stroke="#e03131" stroke-width="2" fill="none"></path></g></g><mask></mask><g transform="translate(551.9544895018837 134.36309547768366) rotate(0 88.29595947265625 10)"><text x="0" y="14.016" font-family="Virgil, Segoe UI Emoji" font-size="16px" fill="#1e1e1e" text-anchor="start" style="white-space: pre;" direction="ltr" dominant-baseline="alphabetic">Save Netbanking token</text></g><g stroke-linecap="round"><g transform="translate(792.5177662448664 174.91610738448117) rotate(0 -148.52035384885082 -0.4830388173064648)"><path d="M1.15 0.78 C-48.71 0.5, -248.45 -1.36, -298.19 -1.75 M0.29 0.14 C-49.3 0.01, -246.33 -0.5, -296.08 -0.62" stroke="#e03131" stroke-width="2" fill="none"></path></g><g transform="translate(792.5177662448664 174.91610738448117) rotate(0 -148.52035384885082 -0.4830388173064648)"><path d="M-272.57 -9.11 C-280.25 -7.56, -291.84 -2.81, -296.08 -0.62 M-272.57 -9.11 C-279.03 -7.86, -284.82 -4.78, -296.08 -0.62" stroke="#e03131" stroke-width="2" fill="none"></path></g><g transform="translate(792.5177662448664 174.91610738448117) rotate(0 -148.52035384885082 -0.4830388173064648)"><path d="M-272.61 7.99 C-280.27 3.01, -291.84 1.22, -296.08 -0.62 M-272.61 7.99 C-279.04 4.96, -284.82 3.76, -296.08 -0.62" stroke="#e03131" stroke-width="2" fill="none"></path></g></g><mask></mask><g transform="translate(229.9920079834921 408.1609235146288) rotate(329.1380981118827 22.847984313964844 10)"><text x="0" y="14.016" font-family="Virgil, Segoe UI Emoji" font-size="16px" fill="#1e1e1e" text-anchor="start" style="white-space: pre;" direction="ltr" dominant-baseline="alphabetic">Signup</text></g><g stroke-linecap="round" transform="translate(1278.1471367669976 1843.729800612492) rotate(0 74.70306224189676 80.54178875500884)"><path d="M96.39 3.35 C106.13 5.27, 116.43 12.92, 124.05 19.92 C131.67 26.92, 138.05 35.6, 142.11 45.34 C146.18 55.09, 148.06 67.18, 148.44 78.37 C148.81 89.56, 148.03 102.31, 144.36 112.5 C140.69 122.69, 133.87 132.1, 126.41 139.49 C118.95 146.88, 109.27 153.24, 99.62 156.83 C89.97 160.43, 78.81 162.07, 68.5 161.06 C58.19 160.05, 46.71 156.08, 37.77 150.78 C28.84 145.49, 20.73 137.96, 14.89 129.3 C9.05 120.65, 4.82 109.33, 2.71 98.84 C0.61 88.34, 0.41 76.96, 2.26 66.35 C4.12 55.73, 8.13 44.14, 13.84 35.14 C19.54 26.15, 27.82 18.13, 36.5 12.39 C45.18 6.64, 55.36 1.9, 65.93 0.65 C76.49 -0.59, 93.72 3.9, 99.88 4.92 C106.04 5.94, 103.43 5.71, 102.89 6.78 M54.61 1.46 C63.49 -2.7, 76.22 -1.41, 86.41 0.27 C96.6 1.95, 107.48 5.26, 115.78 11.55 C124.07 17.83, 130.94 28.67, 136.19 37.98 C141.44 47.3, 145.44 56.62, 147.28 67.42 C149.13 78.23, 149.48 91.98, 147.27 102.82 C145.05 113.66, 140.43 124.39, 134 132.44 C127.56 140.49, 117.81 146.46, 108.68 151.12 C99.55 155.77, 89.29 159.5, 79.21 160.36 C69.13 161.21, 57.76 159.98, 48.18 156.26 C38.61 152.53, 29.2 145.72, 21.75 137.99 C14.3 130.27, 7.06 120.04, 3.48 109.93 C-0.1 99.81, -0.43 88.18, 0.27 77.29 C0.96 66.41, 2.97 54.67, 7.65 44.62 C12.33 34.56, 20.41 24.2, 28.36 16.98 C36.31 9.75, 51 3.27, 55.35 1.29 C59.7 -0.7, 54 3.56, 54.46 5.05" stroke="#f08c00" stroke-width="2" fill="none"></path></g><g transform="translate(1307.0724810939168 1890.1962172019196) rotate(0 32.91998291015625 10)"><text x="0" y="14.016" font-family="Virgil, Segoe UI Emoji" font-size="16px" fill="#f08c00" text-anchor="start" style="white-space: pre;" direction="ltr" dominant-baseline="alphabetic">WORKER</text></g><g stroke-linecap="round"><g transform="translate(1164.3746624730436 1740.7858745977019) rotate(0 66.23439839324396 63.552887309918674)"><path d="M0.77 -0.74 C22.84 20.62, 110.55 106.4, 132.76 127.84 M-0.29 1.49 C21.56 22.5, 109.24 105.17, 131.57 125.88" stroke="#f08c00" stroke-width="2" fill="none"></path></g><g transform="translate(1164.3746624730436 1740.7858745977019) rotate(0 66.23439839324396 63.552887309918674)"><path d="M108.58 116.06 C114.87 118.39, 124.14 123.73, 131.57 125.88 M108.58 116.06 C115.48 118.56, 123.49 122.28, 131.57 125.88" stroke="#f08c00" stroke-width="2" fill="none"></path></g><g transform="translate(1164.3746624730436 1740.7858745977019) rotate(0 66.23439839324396 63.552887309918674)"><path d="M120.27 103.58 C122.7 110.08, 128.13 119.51, 131.57 125.88 M120.27 103.58 C123.31 110.14, 127.46 117.99, 131.57 125.88" stroke="#f08c00" stroke-width="2" fill="none"></path></g></g><mask></mask><g transform="translate(1306.520528991698 1928.580796334544) rotate(0 64.8656400305905 16.736287406218935)"><text x="0" y="11.728790214278206" font-family="Virgil, Segoe UI Emoji" font-size="13.38902992497512px" fill="#f08c00" text-anchor="start" style="white-space: pre;" direction="ltr" dominant-baseline="alphabetic">Process </text><text x="0" y="28.465077620497105" font-family="Virgil, Segoe UI Emoji" font-size="13.38902992497512px" fill="#f08c00" text-anchor="start" style="white-space: pre;" direction="ltr" dominant-baseline="alphabetic">Transactionn</text></g><g stroke-linecap="round" transform="translate(1297.3643190564828 1977.049694210327) rotate(0 59.77296005441269 65.30191045692857)"><path d="M29.89 0 C42.55 -0.9, 56.61 -1.66, 89.66 0 M29.89 0 C50.31 0.71, 70.77 0.39, 89.66 0 M89.66 0 C108.01 -0.73, 121.31 10.9, 119.55 29.89 M89.66 0 C107.88 2.26, 120.31 8.47, 119.55 29.89 M119.55 29.89 C117.21 46.96, 119.22 62.27, 119.55 100.72 M119.55 29.89 C119.21 45.8, 120.82 60.66, 119.55 100.72 M119.55 100.72 C119.13 121.45, 108.96 130.66, 89.66 130.6 M119.55 100.72 C119.57 122.17, 110.79 132.83, 89.66 130.6 M89.66 130.6 C74 129.77, 57.97 130.3, 29.89 130.6 M89.66 130.6 C71.81 129.87, 55.62 129.32, 29.89 130.6 M29.89 130.6 C10.12 130.35, -0.41 120.74, 0 100.72 M29.89 130.6 C9.01 129.19, -1.2 121.87, 0 100.72 M0 100.72 C0.76 79.82, -2.32 59.95, 0 29.89 M0 100.72 C0.58 83.09, -0.27 66.87, 0 29.89 M0 29.89 C-0.32 10.77, 9.18 0.98, 29.89 0 M0 29.89 C1.21 8.18, 8.53 1.69, 29.89 0" stroke="#2f9e44" stroke-width="2" fill="none"></path></g><g transform="translate(1313.1453052339425 2022.3516046672555) rotate(0 43.991973876953125 20)"><text x="43.991973876953125" y="14.016" font-family="Virgil, Segoe UI Emoji" font-size="16px" fill="#2f9e44" text-anchor="middle" style="white-space: pre;" direction="ltr" dominant-baseline="alphabetic">Websocket </text><text x="43.991973876953125" y="34.016" font-family="Virgil, Segoe UI Emoji" font-size="16px" fill="#2f9e44" text-anchor="middle" style="white-space: pre;" direction="ltr" dominant-baseline="alphabetic">Sever</text></g><g stroke-linecap="round"><g transform="translate(472.28213157933214 1384.6979396852148) rotate(0 410.5630221440652 336.4544255861156)"><path d="M-1.13 -0.93 C15.1 99.1, -39.54 488.96, 97.69 600.93 C234.92 712.89, 701.53 659.34, 822.26 670.88 M0.48 1.2 C16.5 101.37, -40.28 491.19, 96.64 602.5 C233.56 713.82, 700.99 657.61, 822 669.1" stroke="#2f9e44" stroke-width="2" fill="none"></path></g><g transform="translate(472.28213157933214 1384.6979396852148) rotate(0 410.5630221440652 336.4544255861156)"><path d="M798.58 677.85 C804.65 674.87, 813.98 673.95, 822 669.1 M798.58 677.85 C807.57 674.44, 817.5 670.87, 822 669.1" stroke="#2f9e44" stroke-width="2" fill="none"></path></g><g transform="translate(472.28213157933214 1384.6979396852148) rotate(0 410.5630221440652 336.4544255861156)"><path d="M798.43 660.75 C804.66 663.37, 814.04 668.05, 822 669.1 M798.43 660.75 C807.59 663.99, 817.58 667.08, 822 669.1" stroke="#2f9e44" stroke-width="2" fill="none"></path></g></g><mask></mask><g stroke-linecap="round"><g transform="translate(1294.117201611483 2086.3197884105766) rotate(0 -427.140433525788 -334.5403232193293)"><path d="M-1.09 -0.08 C-130.17 -4.23, -635.21 90.84, -774.24 -26.07 C-913.28 -142.98, -825.11 -588.76, -835.29 -701.54 M0.54 -1.17 C-128.77 -5.59, -636.05 88.51, -775.47 -27.99 C-914.89 -144.49, -826.05 -587.81, -835.98 -700.18" stroke="#2f9e44" stroke-width="2" fill="none"></path></g><g transform="translate(1294.117201611483 2086.3197884105766) rotate(0 -427.140433525788 -334.5403232193293)"><path d="M-828.65 -676.28 C-830.91 -684.91, -832.51 -691.46, -835.98 -700.18 M-828.65 -676.28 C-830.84 -683.07, -832.71 -690.03, -835.98 -700.18" stroke="#2f9e44" stroke-width="2" fill="none"></path></g><g transform="translate(1294.117201611483 2086.3197884105766) rotate(0 -427.140433525788 -334.5403232193293)"><path d="M-845.72 -677.16 C-842.5 -685.36, -838.61 -691.62, -835.98 -700.18 M-845.72 -677.16 C-842.68 -683.52, -839.31 -690.21, -835.98 -700.18" stroke="#2f9e44" stroke-width="2" fill="none"></path></g></g><mask></mask><g stroke-linecap="round" transform="translate(326.1277048772627 1049.2315209609196) rotate(0 96.30718009785056 82.73788011048543)"><path d="M32 0 C61.15 -0.95, 89.38 -2.68, 160.61 0 M32 0 C59.16 0.97, 87.32 0.4, 160.61 0 M160.61 0 C180.5 -1.29, 194.01 9.95, 192.61 32 M160.61 0 C182.47 -0.95, 190.55 10.93, 192.61 32 M192.61 32 C190.94 62.24, 190.63 91.39, 192.61 133.48 M192.61 32 C192.87 70.41, 191.83 111.06, 192.61 133.48 M192.61 133.48 C193.22 155.96, 182.12 166.77, 160.61 165.48 M192.61 133.48 C191.34 154.71, 180.54 165.26, 160.61 165.48 M160.61 165.48 C126.87 164.4, 90.57 163.97, 32 165.48 M160.61 165.48 C118.97 163.67, 78.36 164.6, 32 165.48 M32 165.48 C12.17 163.81, -0.53 153.86, 0 133.48 M32 165.48 C9.96 164.39, -0.22 156.12, 0 133.48 M0 133.48 C-2.32 104.15, -1.27 73.16, 0 32 M0 133.48 C0.04 100.82, -0.46 67.9, 0 32 M0 32 C0.26 10.12, 10.27 0.98, 32 0 M0 32 C-1.68 12.12, 11.98 -2.23, 32 0" stroke="#e03131" stroke-width="2" fill="none"></path></g><g transform="translate(348.31541879871486 1085.879141187701) rotate(0 79.40795135498047 40)"><text x="0" y="14.016" font-family="Virgil, Segoe UI Emoji" font-size="16px" fill="#e03131" text-anchor="start" style="white-space: pre;" direction="ltr" dominant-baseline="alphabetic">Wallet Webhook </text><text x="0" y="34.016" font-family="Virgil, Segoe UI Emoji" font-size="16px" fill="#e03131" text-anchor="start" style="white-space: pre;" direction="ltr" dominant-baseline="alphabetic">Server</text><text x="0" y="54.016" font-family="Virgil, Segoe UI Emoji" font-size="16px" fill="#e03131" text-anchor="start" style="white-space: pre;" direction="ltr" dominant-baseline="alphabetic">Process transaction</text><text x="0" y="74.016" font-family="Virgil, Segoe UI Emoji" font-size="16px" fill="#e03131" text-anchor="start" style="white-space: pre;" direction="ltr" dominant-baseline="alphabetic">DB</text></g><g stroke-linecap="round"><g transform="translate(1410.962337421836 1869.953539349025) rotate(0 -406.3976568549161 -395.81465175397284)"><path d="M0.91 -0.48 C2.66 -110.45, 159 -529.22, 11.04 -660.69 C-136.92 -792.15, -736.95 -767.7, -886.84 -789.26 M-0.07 -1.77 C1.49 -111.5, 158.08 -527.76, 10.18 -659.32 C-137.71 -790.88, -737.63 -769.55, -887.43 -791.15" stroke="#e03131" stroke-width="2" fill="none"></path></g><g transform="translate(1410.962337421836 1869.953539349025) rotate(0 -406.3976568549161 -395.81465175397284)"><path d="M-863.49 -798.36 C-872.62 -795.39, -880.65 -792.64, -887.43 -791.15 M-863.49 -798.36 C-873.14 -796.58, -882.35 -792.2, -887.43 -791.15" stroke="#e03131" stroke-width="2" fill="none"></path></g><g transform="translate(1410.962337421836 1869.953539349025) rotate(0 -406.3976568549161 -395.81465175397284)"><path d="M-864.46 -781.29 C-873.13 -784.23, -880.83 -787.39, -887.43 -791.15 M-864.46 -781.29 C-873.59 -785.85, -882.44 -787.82, -887.43 -791.15" stroke="#e03131" stroke-width="2" fill="none"></path></g></g><mask></mask><g transform="translate(822.4651783724604 1112.546794778967) rotate(2.447407693297362 137.75722605485936 22.65669957051341)"><text x="0" y="15.877815059015788" font-family="Virgil, Segoe UI Emoji" font-size="18.125359656410716px" fill="#e03131" text-anchor="start" style="white-space: pre;" direction="ltr" dominant-baseline="alphabetic">Update Wallet Transaction</text><text x="0" y="38.534514629529184" font-family="Virgil, Segoe UI Emoji" font-size="18.125359656410716px" fill="#e03131" text-anchor="start" style="white-space: pre;" direction="ltr" dominant-baseline="alphabetic">      Status</text></g><g stroke-linecap="round"><g transform="translate(324.51244372915454 1117.100430360916) rotate(0 -57.55192261999494 59.3024478801978)"><path d="M1.19 -0.83 C-18.01 18.77, -95.98 98.25, -115.53 117.83 M0.35 1.35 C-18.93 21.15, -96.72 100.1, -116.29 119.43" stroke="#e03131" stroke-width="2" fill="none"></path></g><g transform="translate(324.51244372915454 1117.100430360916) rotate(0 -57.55192261999494 59.3024478801978)"><path d="M-105.77 96.76 C-109.94 103.56, -111.16 108.61, -116.29 119.43 M-105.77 96.76 C-108.24 100.93, -110.16 106.39, -116.29 119.43" stroke="#e03131" stroke-width="2" fill="none"></path></g><g transform="translate(324.51244372915454 1117.100430360916) rotate(0 -57.55192261999494 59.3024478801978)"><path d="M-93.65 108.83 C-101.1 112.51, -105.58 114.31, -116.29 119.43 M-93.65 108.83 C-98.66 110.37, -103.12 113.29, -116.29 119.43" stroke="#e03131" stroke-width="2" fill="none"></path></g></g><mask></mask><g transform="translate(183.92940668109185 1130.9294384144034) rotate(314.05680631927663 60.29595947265625 20)"><text x="0" y="14.016" font-family="Virgil, Segoe UI Emoji" font-size="16px" fill="#e03131" text-anchor="start" style="white-space: pre;" direction="ltr" dominant-baseline="alphabetic">Updates from</text><text x="0" y="34.016" font-family="Virgil, Segoe UI Emoji" font-size="16px" fill="#e03131" text-anchor="start" style="white-space: pre;" direction="ltr" dominant-baseline="alphabetic"> netbanking App</text></g><g transform="translate(1042.6206775557087 1506.4130301774806) rotate(93.38788546677796 76.86738719881873 18.604859891380897)"><text x="0" y="26.076571623759406" font-family="Virgil, Segoe UI Emoji" font-size="29.76777582620937px" fill="#1971c2" text-anchor="start" style="white-space: pre;" direction="ltr" dominant-baseline="alphabetic">Publish</text></g><g transform="translate(1164.415050448112 1773.3553063445513) rotate(46.10287887035727 84.22395324707031 10)"><text x="0" y="14.016" font-family="Virgil, Segoe UI Emoji" font-size="16px" fill="#1971c2" text-anchor="start" style="white-space: pre;" direction="ltr" dominant-baseline="alphabetic">Subscribed to channel</text></g><g mask="url(#mask-ZlXwzafwn0ZGoNk7ADpv3)" stroke-linecap="round"><g transform="translate(450.6742964857131 1376.814226200128) rotate(0 -137.46336860112518 59.621385632354134)"><path d="M0.09 0.1 C-23.96 19.84, -98.01 116.36, -143.76 118.59 C-189.52 120.82, -252.51 30.91, -274.44 13.48 M-1.32 -0.89 C-25.05 19.04, -95.98 117.45, -141.6 120.08 C-187.21 122.71, -252.72 32.91, -275.02 14.87" stroke="#1971c2" stroke-width="2" fill="none"></path></g><g transform="translate(450.6742964857131 1376.814226200128) rotate(0 -137.46336860112518 59.621385632354134)"><path d="M-252.56 25.86 C-260.17 20.34, -268.25 18.88, -275.02 14.87 M-252.56 25.86 C-258.83 22.79, -266.77 19.54, -275.02 14.87" stroke="#1971c2" stroke-width="2" fill="none"></path></g><g transform="translate(450.6742964857131 1376.814226200128) rotate(0 -137.46336860112518 59.621385632354134)"><path d="M-264.88 37.72 C-268.24 28.1, -272.07 22.54, -275.02 14.87 M-264.88 37.72 C-267.27 30.9, -271.38 23.96, -275.02 14.87" stroke="#1971c2" stroke-width="2" fill="none"></path></g></g><mask id="mask-ZlXwzafwn0ZGoNk7ADpv3"><rect x="0" y="0" fill="#fff" width="825.4788968820958" height="1595.4971985722923"></rect><rect x="245.254524246245" y="1485.4971985722923" fill="#000" width="125.39192199707031" height="20" opacity="1"></rect></mask><g transform="translate(245.254524246245 1485.4971985722923) rotate(0 67.95640363834292 -49.06158673981025)"><text x="62.695960998535156" y="14.016" font-family="Virgil, Segoe UI Emoji" font-size="16px" fill="#1971c2" text-anchor="middle" style="white-space: pre;" direction="ltr" dominant-baseline="alphabetic">Redirected back</text></g><g transform="translate(1046.9704335574863 1013.9802349582909) rotate(0 257.1105041503906 48.30031352714309)"><text x="0" y="33.84885971982189" font-family="Virgil, Segoe UI Emoji" font-size="38.64025082171449px" fill="#1e1e1e" text-anchor="start" style="white-space: pre;" direction="ltr" dominant-baseline="alphabetic">DUMMY ONRAMP/OFFRAMP</text><text x="0" y="82.149173246965" font-family="Virgil, Segoe UI Emoji" font-size="38.64025082171449px" fill="#1e1e1e" text-anchor="start" style="white-space: pre;" direction="ltr" dominant-baseline="alphabetic">User Netbanking App</text></g><g stroke-linecap="round" transform="translate(10 1009.2816640278864) rotate(0 783.7395055970147 569.7207322761192)"><path d="M32 0 C511.01 -0.9, 989.85 -0.77, 1535.48 0 M32 0 C625.27 -4.05, 1218.81 -3.89, 1535.48 0 M1535.48 0 C1555.5 -0.99, 1567.86 12.19, 1567.48 32 M1535.48 0 C1556.43 0.22, 1567.86 10.75, 1567.48 32 M1567.48 32 C1562.81 338.18, 1562.8 646.21, 1567.48 1107.44 M1567.48 32 C1565.8 397.92, 1566.49 764.16, 1567.48 1107.44 M1567.48 1107.44 C1565.7 1130.66, 1558.28 1138.65, 1535.48 1139.44 M1567.48 1107.44 C1567.88 1126.75, 1555.88 1139.47, 1535.48 1139.44 M1535.48 1139.44 C1170.82 1145.4, 806.48 1145.57, 32 1139.44 M1535.48 1139.44 C1230.67 1144.63, 925.52 1144.65, 32 1139.44 M32 1139.44 C11.67 1137.89, 0.52 1127.82, 0 1107.44 M32 1139.44 C11.32 1141.27, -1.16 1126.55, 0 1107.44 M0 1107.44 C4.02 720.27, 4.17 334.07, 0 32 M0 1107.44 C-4.23 724.3, -4.64 341.22, 0 32 M0 32 C-1.61 9.73, 9.85 1.65, 32 0 M0 32 C-0.86 8.41, 9.46 -2.05, 32 0" stroke="#1971c2" stroke-width="2" fill="none"></path></g><g stroke-linecap="round" transform="translate(13.006655051789949 10) rotate(0 778.4806436567161 490.1410914179103)"><path d="M32 0 C561.73 -0.98, 1091.69 -1.64, 1524.96 0 M32 0 C391.63 1.06, 751.71 0.79, 1524.96 0 M1524.96 0 C1546.43 -0.01, 1557.84 9.74, 1556.96 32 M1524.96 0 C1544.59 -0.07, 1555.02 9.23, 1556.96 32 M1556.96 32 C1557.02 280.32, 1557.26 527.98, 1556.96 948.28 M1556.96 32 C1554.44 244.08, 1554.45 456.62, 1556.96 948.28 M1556.96 948.28 C1556.37 971.17, 1545.75 981.74, 1524.96 980.28 M1556.96 948.28 C1554.69 968.07, 1544.38 978.96, 1524.96 980.28 M1524.96 980.28 C1188.09 975.96, 848.95 975.42, 32 980.28 M1524.96 980.28 C1202.19 979.76, 878.51 979.88, 32 980.28 M32 980.28 C9.96 980.36, 1.81 968.3, 0 948.28 M32 980.28 C11.96 980.21, 1.66 969.7, 0 948.28 M0 948.28 C-3.56 725.67, -3.12 504.04, 0 32 M0 948.28 C3.79 588.13, 3.54 228.67, 0 32 M0 32 C1.7 9.32, 8.74 1.11, 32 0 M0 32 C-0.93 11.16, 12.05 0.41, 32 0" stroke="#1971c2" stroke-width="2" fill="none"></path></g><g stroke-linecap="round"><g transform="translate(1344.1334312314568 1840.9004698848491) rotate(0 -4.530441904380268 -120.12659425835193)"><path d="M-0.63 0.42 C-2.14 -39.51, -7.7 -198.9, -9.14 -239.16 M1.24 -0.41 C-0.45 -40.67, -8.38 -200.69, -10.3 -240.67" stroke="#f08c00" stroke-width="2" fill="none"></path></g><g transform="translate(1344.1334312314568 1840.9004698848491) rotate(0 -4.530441904380268 -120.12659425835193)"><path d="M-0.61 -217.62 C-2.82 -225.06, -4.4 -231.97, -10.3 -240.67 M-0.61 -217.62 C-2.74 -222.36, -4.33 -228.01, -10.3 -240.67" stroke="#f08c00" stroke-width="2" fill="none"></path></g><g transform="translate(1344.1334312314568 1840.9004698848491) rotate(0 -4.530441904380268 -120.12659425835193)"><path d="M-17.7 -216.79 C-14.93 -224.38, -11.54 -231.53, -10.3 -240.67 M-17.7 -216.79 C-15.89 -221.68, -13.53 -227.52, -10.3 -240.67" stroke="#f08c00" stroke-width="2" fill="none"></path></g></g><mask></mask></svg>